<svg width="571" height="571" viewBox="0 0 571 571" xmlns="http://www.w3.org/2000/svg" xmlns:sketch="http://www.bohemiancoding.com/sketch/ns"><title>doc</title><desc>Created with Sketch Beta.</desc><g sketch:type="MSShapeGroup" fill="none"><rect id="Rectangle-path" fill="#F4F4F4" width="571" height="571" rx="350"/><path d="M406.772 401.917c0 51.508-41.621 93.26-92.968 93.26h-77.38c-51.34 0-92.966-41.752-92.966-93.26v-102.066h263.314v102.066z" id="Shape" fill="#141414"/><g id="Shape"><g fill="#141414"><path d="M383.472 396.292l-99.45 6.962-95.501-7.019 36.362 135.672 123.785-.261 34.804-135.354zM188.52 395.968l42.98 135.941-143.15-.262 13.199-88.679c0-24.071 20.32-43.586 45.397-43.586l41.574-3.414zM229.617 531.909h111.07l-.035.091h-111.001l-.034-.091zM483.649 531.909h-142.962l42.781-135.62 41.585 3.354c25.077 0 45.397 19.515 45.397 43.585l13.199 88.681zM368.814 395.745c-1.044 43.102-82.795 129.208-82.795 129.208s-81.863-86.329-82.808-129.253l16.133-.936c5.997-.342 11.629-2.99 15.542-7.339 6.281-6.893 6.088-11.332 4.188-31.819l-.512-5.478c-.262-2.831-.534-5.925-.831-9.302h93.458c-.319 3.754-.649 7.145-.944 10.236-.968 9.599-1.73 16.264-1.65 21.4.035 3.024.353 5.512 1.092 7.761l.08.228c.854 2.455 2.218 4.623 4.267 6.893 3.948 4.349 9.546 6.986 15.599 7.328l19.181 1.073zM368.814 395.745c5.481 29.619-82.795 129.208-82.795 129.208s-1.563-92.091-7.817-133.84l-39.128-35.507-.638-5.478v-6.322h91.808l.102 7.256c-.864 10.318-1.707 16.676-1.752 21.4-.034 3.07.261 5.444 1.092 7.761l.08.228c.478 1.244 1.104 2.465 1.911 3.778.671 1.061 1.468 2.134 2.355 3.115 3.948 4.349 9.546 6.986 15.599 7.328l19.183 1.073zM157.136 453.233c15.736-12.067 107.159 60.139 128.883 71.719-15.792-13.511-85.758-116.586-81.955-129.93-29.222-1.021-48.681 17.138-46.929 42.59.001 5.209.001 10.415.001 15.621zM157.136 453.233c15.736-12.067 107.159 60.139 128.883 71.719-15.792-13.511-130.636-112.792-128.883-87.34v15.621zM415.354 453.233c-15.747-12.067-107.61 60.139-129.335 71.719 15.79-13.511 86.2-116.586 82.409-129.93 29.21-1.021 48.671 17.138 46.927 42.59-.001 5.209-.001 10.415-.001 15.621zM415.354 453.233c-15.747-12.067-107.61 60.139-129.335 71.719 15.79-13.511 131.08-112.792 129.335-87.34v15.621z"/></g><path d="M383.472 396.292l-99.45 6.962-95.501-7.019 36.362 135.672 123.785-.261 34.804-135.354z" fill="#29ABE2"/><path d="M188.52 395.968l42.98 135.941-143.15-.262 13.199-88.679c0-24.071 20.32-43.586 45.397-43.586l41.574-3.414zM229.617 531.909h111.07l-.035.091h-111.001l-.034-.091zM483.649 531.909h-142.962l42.781-135.62 41.585 3.354c25.077 0 45.397 19.515 45.397 43.585l13.199 88.681z" fill="#fff"/><path d="M368.814 395.745c-1.044 43.102-82.795 129.208-82.795 129.208s-81.863-86.329-82.808-129.253l16.133-.936c5.997-.342 11.629-2.99 15.542-7.339 6.281-6.893 6.088-11.332 4.188-31.819l-.512-5.478c-.262-2.831-.534-5.925-.831-9.302h93.458c-.319 3.754-.649 7.145-.944 10.236-.968 9.599-1.73 16.264-1.65 21.4.035 3.024.353 5.512 1.092 7.761l.08.228c.854 2.455 2.218 4.623 4.267 6.893 3.948 4.349 9.546 6.986 15.599 7.328l19.181 1.073z" fill="#FFB485"/><path d="M368.814 395.745c5.481 29.619-82.795 129.208-82.795 129.208s-1.563-92.091-7.817-133.84l-39.128-35.507-.638-5.478v-6.322h91.808l.102 7.256c-.864 10.318-1.707 16.676-1.752 21.4-.034 3.07.261 5.444 1.092 7.761l.08.228c.478 1.244 1.104 2.465 1.911 3.778.671 1.061 1.468 2.134 2.355 3.115 3.948 4.349 9.546 6.986 15.599 7.328l19.183 1.073z" opacity=".2" fill="#943B20"/><path d="M157.136 453.233c15.736-12.067 107.159 60.139 128.883 71.719-15.792-13.511-85.758-116.586-81.955-129.93-29.222-1.021-48.681 17.138-46.929 42.59.001 5.209.001 10.415.001 15.621z" fill="#29ABE2"/><path d="M157.136 453.233c15.736-12.067 107.159 60.139 128.883 71.719-15.792-13.511-130.636-112.792-128.883-87.34v15.621z" fill="#1D789E"/><path d="M415.354 453.233c-15.747-12.067-107.61 60.139-129.335 71.719 15.79-13.511 86.2-116.586 82.409-129.93 29.21-1.021 48.671 17.138 46.927 42.59-.001 5.209-.001 10.415-.001 15.621z" fill="#29ABE2"/><path d="M415.354 453.233c-15.747-12.067-107.61 60.139-129.335 71.719 15.79-13.511 131.08-112.792 129.335-87.34v15.621z" fill="#1D789E"/></g><path d="M425.971 530.044h-57.104v-16.394c0-2.606 2.107-4.72 4.706-4.72h47.692c2.599 0 4.706 2.113 4.706 4.72v16.394z" id="Shape" fill="#22B573"/><path d="M427.11 530.044h-2.275v-16.393c0-1.975-1.6-3.58-3.568-3.58h-47.692c-1.968 0-3.568 1.605-3.568 3.58v16.393h-2.276v-16.393c0-3.232 2.621-5.862 5.844-5.862h47.692c3.222 0 5.843 2.63 5.843 5.862v16.393z" id="Shape" fill="#000"/><path d="M401.817 513.199h-8.793v-7.985c0-1.152 1.072-2.084 2.395-2.084h4.004c1.322 0 2.395.932 2.395 2.084v7.985h-.001z" id="Shape" fill="#333"/><path id="Rectangle-path" fill="#006837" d="M391.625 512.592h11.591v1.213h-11.591z"/><path id="Rectangle-path" fill="#C05432" d="M374.15 519.487h18.874v10.558h-18.874z"/><path fill="#333" d="M398.422 526.334h18.873v1.998h-18.873z"/><path d="M418.141 209.388c-.896 5.599-2.027 19.813-2.384 23.403-1.193 6.459-2.887 11.063-4.813 14.326-1.016 1.521-2.002 2.799-2.94 3.869l-.12.125c-8.658 9.678-14.131 1.77-14.131 1.77-.569 29.653-17.262 51.778-33.207 72.166-13.187 16.839-40.542 31.899-58.413 40.529-10.702 5.151-23.207 4.934-33.725-.597-16.542-8.74-41.187-23.541-54.073-40.054-15.894-20.374-33.018-46.78-33.6-76.367h-1.34c-1.462 0-2.944.231-4.338.679-6.247 1.985-14.471-1.931-15.066-7.745-.825-8.157-5.325-24.017-6.611-32.103-1.178-7.473 1.991-19.476 7.113-25.037 5.12-5.557 12.329-4.251 19.889-4.251l.284.038v-4.32c0-138.154 213.653-138.154 213.653 0v4.32l.287-.038c7.547 0 14.753-1.306 19.889 4.251 5.122 5.56 4.835 17.563 3.646 25.036z" id="Shape" fill="#F6BD91"/><g fill="#000"><g transform="translate(203 199)"><ellipse id="Oval" cx="33.597" cy="14.904" rx="11.443" ry="11.479"/><path d="M58.961 18.102c-26.597-30.942-31.601-12.414-58.66-7.106l13.951 8.104c.023-14.992 23.299-19.738 44.709-.998z" id="Shape"/></g><g transform="translate(310 199)"><ellipse cx="23.826" cy="12.121" rx="11.443" ry="11.48"/><path d="M.237 18.38c2.12-2.012 4.246-3.629 6.37-5.141 6.095-4.313 12.19-6.722 17.685-7.621 11.588-1.845 20.455 3.26 20.739 12.38l13.667-8.558c-21.265-3.536-29.318-15.51-44.108-5.332-2.104 1.462-4.396 3.416-6.859 5.823v.048c-2.316 2.301-4.779 5.106-7.494 8.401z" id="Shape"/></g></g><g id="Shape" fill="#141414"><path d="M367.133 186.404c-9.92-2.039-19.839-4.079-29.759-6.115-2.508-.516-4.989-1.089-7.563-1.121-3.397-.042-6.703.777-9.762 2.236-3.952 1.883-7.292 5.166-10.672 7.875-1.382 1.108-2.792 2.108-3.16 3.988-.597 3.046 1.91 5.926 5.001 5.739 2.024-.125 3.24-1.542 4.567-2.865 1.896-1.89 3.79-3.783 5.688-5.671l.021-.019-.188.158c3.176-2.844 6.685-4.465 11.025-4.384 2.556.048 5.139.429 7.685.659 3.194.288 6.388.576 9.583.862 4.622.417 9.244.833 13.868 1.248l3.025.273c1.82.163 2.579-2.465.641-2.863zM204.864 186.404c9.92-2.039 19.839-4.079 29.759-6.115 2.508-.516 4.989-1.089 7.562-1.121 3.398-.042 6.703.777 9.762 2.236 3.952 1.883 7.292 5.166 10.672 7.875 1.382 1.108 2.792 2.108 3.16 3.988.597 3.046-1.91 5.926-5.001 5.739-2.024-.125-3.24-1.542-4.566-2.865-1.897-1.89-3.79-3.783-5.688-5.671l-.021-.019.188.158c-3.175-2.844-6.684-4.465-11.025-4.384-2.556.048-5.139.429-7.685.659-3.194.288-6.388.576-9.582.862-4.622.417-9.245.833-13.868 1.248l-3.026.273c-1.819.163-2.578-2.465-.641-2.863z"/></g><path d="M286 285.4c-4.392 0-6.999-3.545-8.902-6.132-.937-1.273-1.823-2.48-2.545-2.715-.678-.221-1.091-1.132-.924-2.033.167-.901.86-1.456 1.523-1.234 1.422.458 2.554 1.998 3.752 3.628 1.763 2.402 3.768 5.122 7.097 5.122 3.594 0 5.748-2.905 7.651-5.468 1.052-1.42 1.966-2.646 3.029-3.212.64-.35 1.379.073 1.639.94.256.862-.053 1.843-.705 2.183-.572.31-1.35 1.353-2.167 2.458-2.03 2.726-4.798 6.463-9.448 6.463z" id="Shape" opacity=".5" fill="#943B20"/><g id="Shape"><path d="M315.076 317.668h-.063c-7.146.688-13.097-3.671-19.837-5.325-1.074-.263-2.223.098-2.838.891-1.251 1.621-3.625 2.718-6.365 2.718-2.744 0-5.121-1.101-6.371-2.726-.605-.786-1.733-1.151-2.799-.905-6.927 1.595-13.739 5.735-19.935 5.347.727 1.198 2.227 2.307 4.297 3.291 2.343 5.808 12.544 12.467 24.808 12.467s22.467-6.66 24.81-12.469c2.068-.984 3.566-2.093 4.293-3.289z" fill="#f66"/><path d="M318.358 315.984c-8.599 7.28-20.365 8.545-31.166 9.017-3.503.152-7.132-.102-10.608-.55-1.99-.272-3.996-.46-5.951-.929-3.117-.749-6.1-1.615-9.12-2.693-2.753-.983-5.322-2.745-7.589-4.572-.537-.433-.241-.604.285-.345 1.198.592 2.409 1.146 3.637 1.671 2.703 1.159 5.58 1.821 8.454 2.399 6.184 1.242 12.509 1.484 18.793 1.634 6.371.152 12.698-.487 18.996-1.364 3-.42 6.087-1.169 8.922-2.23 1.263-.473 2.502-1.037 3.718-1.62.349-.168 1.484-1.068 1.629-.418z" fill="#C1272D"/></g><g id="Shape"><path d="M297.058 33.009c-3.649-.359-7.342-.493-11.031-.493-4.548 0-9.04.223-13.488.671-90.353 8.887-161.529 106.483-161.529 225.555 0 80.944 32.896 151.892 82.304 191.851 14.017 11.333 28.839 13.214 28.839 13.214-3.328-2.76-10.746-16.436-7.998-26.854 1.311-5.001.01-10.333-3.451-14.166-56-61.937 3.119-84.22-8.429-119.58-24.038-73.607-10.237-115.564 14.66-141.751 0 0 12.613 1.647 11.206 8.083 5.631-1.431 35.089-19.03 33.494-38.671 0-34.392 58.498-21.313 50.739-38.437 22.321 12.792 45.4 32.191 59.458 56.067 2.485 4.219 2.799 9.376.842 13.872-14.934 34.403 34.764 68.806-.451 103.212 33.79-26.859 15.821-53.711 17.26-80.57 3.335-4.414 32.876-2.776 24.009 23.975-5.032 15.176.313 17.912-1.597 24.926-2.942 10.58-5.046 19.933-16.771 20.92-1.346.111-3.638-.987-4.978-1.856-4.226 59.074-67.31 82.732-63.842 147.873 8.139 42.416 39.305 38.808 39.26 59.383 56.609-37.457 95.423-113.581 95.423-201.491.001-120.148-72.465-218.413-163.929-225.733z" fill="#292929"/><path d="M245.355 72.298c-95.83 44.939-142.651 114.371-102.447 250.861-7.378-135.626 14.837-207.889 102.447-250.861zM362.487 419.706c-40.077-61.131 28.857-116.866 27.652-166.73 0 0 7.535 4.604 14.132-1.771l.123-.125c1.017-1.002 2.005-2.28 2.94-3.868.8-1.197 1.961-4.414 2.464-6.066.902-2.95 1.261-4.213 2.098-7.643 13.495 66.463-79.718 116.265-49.409 186.203zM320.388 85.412c62.267 15.192 84.39 56.227 85.981 100.056-5.233-2.179-11.06-3.571-16.885-.455-2.982-45.834-15.871-78.672-69.096-99.601zM312.374 92.432c3.008-18.74-28.683-55.856-39.834-59.246 4.448-.448 8.94-.671 13.488-.671 3.688 0 7.382.134 11.031.493 1.071 7.278 21.283 44.239 15.315 59.424z" fill="#666"/></g><g><path d="M184.209 174.051v33.523c0 21.659 16.66 39.218 37.209 39.218h.058c18.61 0 35.793-10.532 45.032-27.562 5.252-9.685 12.417-15.648 20.326-15.648 7.911 0 15.078 5.967 20.332 15.649 9.221 17.008 26.446 27.561 45.032 27.561h.058c20.551 0 37.207-17.559 37.207-39.218v-33.523h-205.254z" opacity=".2" fill="#A6E2F1"/><path d="M352.255 250.522h-.055c-19.824 0-38.262-11.281-48.107-29.441-4.82-8.876-10.951-13.764-17.26-13.764-6.306 0-12.435 4.888-17.253 13.764-9.847 18.16-28.281 29.441-48.104 29.441-22.528 0-40.801-19.267-40.801-42.948v-37.252h212.327v37.252c-.001 23.681-18.277 42.948-40.747 42.948zm-65.422-50.668c8.961 0 17.271 6.224 23.403 17.526 8.59 15.841 24.671 25.682 41.963 25.682h.055c18.564 0 33.669-15.922 33.669-35.488v-29.791h-198.175v29.791c0 19.566 15.104 35.488 33.67 35.488 17.347 0 33.424-9.841 42.019-25.683 6.128-11.301 14.441-17.525 23.396-17.525z" fill="#fff"/></g></g></svg>