<svg width="2644" height="2059" viewBox="0 0 2644 2059" xmlns="http://www.w3.org/2000/svg" xmlns:sketch="http://www.bohemiancoding.com/sketch/ns"><title>thanks-graphic</title><desc>Created with Sketch Beta.</desc><g sketch:type="MSLayerGroup" fill="none"><circle fill="#576AAC" sketch:type="MSShapeGroup" cx="1743.5" cy="1158.5" r="900.5"/><g sketch:type="MSShapeGroup"><ellipse fill="#FFE167" cx="843" cy="1083.857" rx="843" ry="843"/><path d="M1264.5 1505.357h-843v307.093c126.45 72.257 264.943 114.407 421.5 114.407 156.557 0 295.05-42.15 421.5-114.407v-307.093z" fill="#FF3939"/><path d="M421.5 0c168.6 0 301.071 132.471 301.071 301.071 0 96.343-48.171 186.664-120.429 240.857v481.714c0 264.943-216.771 481.714-481.714 481.714v-1204.286c0-168.6 132.471-301.071 301.071-301.071z" fill="#D72828"/><path d="M662.357 1264.5v301.071c0 102.364 78.279 180.643 180.643 180.643s180.643-78.279 180.643-180.643v-301.071h-361.286z" fill="#FCC792"/><path d="M1264.5 0c-168.6 0-301.071 132.471-301.071 301.071 0 96.343 48.171 186.664 120.429 240.857v481.714c0 264.943 216.771 481.714 481.714 481.714v-1204.286c0-168.6-132.471-301.071-301.071-301.071z" fill="#D72828"/><path d="M662.357 1204.286l361.286 361.286v-361.286h-361.286z" fill="#FCBD83"/><path d="M421.5 421.5v602.143c0 234.836 186.664 421.5 421.5 421.5s421.5-186.664 421.5-421.5v-602.143h-843z" id="Face" fill="#FAD3A1"/><path d="M963.429 421.5v361.286c-66.236 0-120.429 54.193-120.429 120.429v60.214h-84.3c12.043 36.129 48.171 60.214 84.3 60.214v421.5c234.836 0 421.5-186.664 421.5-421.5v-602.143h-301.071z" id="Face_x5F_Depth" fill="#FCC792"/><path fill="#BF1C1C" d="M993.536 632.25h180.643v60.214h-180.643z"/><path fill="#BF1C1C" d="M511.821 632.25h180.643v60.214h-180.643z"/><path d="M843 120.429c-283.007 0-511.821 228.814-511.821 511.821v331.178h90.321v-361.286h843v361.286h90.321v-331.178c0-283.007-228.814-511.821-511.821-511.821z" fill="#BF1C1C"/><ellipse fill="#FCBD83" cx="1083.857" cy="921.279" rx="48.171" ry="48.171"/><ellipse fill="#FCBD83" cx="602.143" cy="921.279" rx="48.171" ry="48.171"/><path d="M1264.5 782.786c66.236 0 120.429 54.193 120.429 120.429s-54.193 120.429-120.429 120.429v-240.857z" fill="#FCC792"/><path d="M421.5 782.786c-66.236 0-120.429 54.193-120.429 120.429s54.193 120.429 120.429 120.429v-240.857z" fill="#FAD3A1"/><circle fill="#25374B" cx="602.143" cy="782.786" r="60.214"/><circle fill="#E6E6E6" cx="602.143" cy="752.679" r="18.064"/><path d="M602.143 138.493c12.043 0 24.086 6.021 30.107 12.043 6.021-6.021 18.064-12.043 30.107-12.043 24.086 0 48.171 18.064 48.171 48.171s-24.086 42.15-48.171 42.15c-12.043 0-24.086-6.021-30.107-12.043-6.021 6.021-18.064 12.043-30.107 12.043-24.086 0-42.15-24.086-42.15-48.171 0-24.086 18.064-42.15 42.15-42.15z" fill="#F15723"/><path d="M1083.857 138.493c-12.043 0-24.086 6.021-30.107 12.043-6.021-6.021-18.064-12.043-30.107-12.043-24.086 0-48.171 18.064-48.171 48.171s18.064 48.171 48.171 48.171c12.043 0 24.086-6.021 30.107-12.043 6.021 6.021 18.064 12.043 30.107 12.043 24.086 0 48.171-18.064 48.171-48.171s-24.086-48.171-48.171-48.171z" fill="#F15723"/><path d="M210.75 1637.829c60.214 72.257 132.471 126.45 210.75 174.621v-307.093c-96.343 0-174.621 54.193-210.75 132.471z" fill="#FAD3A1"/><path d="M1475.25 1637.829c-42.15-78.279-120.429-132.471-210.75-132.471v307.093c78.279-48.171 150.536-108.386 210.75-174.621z" fill="#FAD3A1"/><path d="M1023.643 764.721v36.129c18.064-12.043 36.129-24.086 60.214-24.086 24.086 0 42.15 12.043 60.214 24.086v-36.129c-18.064-12.043-36.129-18.064-60.214-18.064-24.086 0-42.15 6.021-60.214 18.064z" fill="#25374B"/><path d="M987.514 1113.964c-30.107 48.171-84.3 78.279-144.514 78.279-60.214 0-114.407-30.107-144.514-78.279h-36.129c36.129 60.214 102.364 108.386 180.643 108.386s144.514-42.15 180.643-108.386h-36.129z" fill="#FCBD83"/></g><g sketch:type="MSShapeGroup"><path d="M2451.036 1710.95v-38.593c0-141.507-115.779-257.286-257.286-257.286h-900.5c-141.507 0-257.286 115.779-257.286 257.286v38.593c167.236 212.261 418.089 347.336 707.536 347.336 289.446 0 540.3-135.075 707.536-347.336z" fill="#213068"/><path d="M1550.536 2038.989c64.321 12.864 128.643 19.296 192.964 19.296s128.643-6.432 192.964-19.296v-559.596h-385.929v559.596z" fill="#38447E"/><path d="M2129.429 1415.071l-192.964-192.964v514.571l128.643-128.643-64.321-64.321 128.643-128.643z" fill="#172656"/><path d="M1357.571 1415.071l192.964-192.964v514.571l-128.643-128.643 64.321-64.321-128.643-128.643z" fill="#172656"/><path d="M1550.536 1157.786v321.607c0 109.346 83.618 192.964 192.964 192.964s192.964-83.618 192.964-192.964v-321.607h-385.929z" fill="#BF8862"/><path d="M1550.536 1093.464l385.929 385.929v-385.929h-385.929z" fill="#AF7751"/><path d="M1807.821 0h-128.643c-212.261 0-385.929 173.668-385.929 385.929v450.25c0 250.854 199.396 450.25 450.25 450.25s450.25-199.396 450.25-450.25v-450.25c0-212.261-173.668-385.929-385.929-385.929z" fill="#D3A17D"/><path d="M1807.821 0v598.189c-38.593 19.296-64.321 64.321-64.321 109.346v64.321h-90.05c12.864 38.593 51.457 64.321 90.05 64.321v450.25c250.854 0 450.25-199.396 450.25-450.25v-450.25c0-212.261-173.668-385.929-385.929-385.929z" fill="#BF8862"/><path fill="#25374B" d="M1904.304 353.768h192.964v64.321h-192.964z"/><path fill="#25374B" d="M1389.732 353.768h192.964v64.321h-192.964z"/><path d="M1293.25 578.893c-70.754 0-128.643 57.889-128.643 128.643 0 70.754 57.889 128.643 128.643 128.643v-257.286z" fill="#BF8862"/><path d="M2193.75 578.893c70.754 0 128.643 57.889 128.643 128.643 0 70.754-57.889 128.643-128.643 128.643v-257.286z" fill="#BF8862"/><path d="M1807.821 450.25v64.321h-128.643v-64.321h-385.929v128.643c0 109.346 83.618 192.964 192.964 192.964s192.964-83.618 192.964-192.964h128.643c0 109.346 83.618 192.964 192.964 192.964s192.964-83.618 192.964-192.964v-128.643h-385.929z" fill="#12273A"/><path d="M1743.5 1157.786c141.507 0 257.286-115.779 257.286-257.286h-514.571c0 141.507 115.779 257.286 257.286 257.286z" fill="#E6E6E6"/><path d="M1743.5 1672.357c109.346 0 192.964-83.618 192.964-192.964h-385.929c0 109.346 83.618 192.964 192.964 192.964z" fill="#E6E6E6"/></g></g></svg>