<?xml version="1.0" encoding="UTF-8" standalone="no"?>
<svg width="571px" height="571px" viewBox="0 0 571 571" version="1.1" xmlns="http://www.w3.org/2000/svg" xmlns:xlink="http://www.w3.org/1999/xlink" xmlns:sketch="http://www.bohemiancoding.com/sketch/ns">
    <!-- Generator: Sketch Beta 3.4 (15009) - http://www.bohemiancoding.com/sketch -->
    <title>doc</title>
    <desc>Created with Sketch Beta.</desc>
    <defs></defs>
    <g id="Page-1" stroke="none" stroke-width="1" fill="none" fill-rule="evenodd" sketch:type="MSPage">
        <g id="doc" sketch:type="MSLayerGroup">
            <g id="Group" sketch:type="MSShapeGroup">
                <rect id="Rectangle-path" fill="#F4F4F4" x="0" y="0" width="571" height="571" rx="350"></rect>
                <g transform="translate(88.000000, 32.000000)">
                    <g>
                        <g transform="translate(0.000000, 267.000000)">
                            <path d="M318.772,102.917 C318.772,154.425 277.151,196.177 225.804,196.177 L148.424,196.177 C97.084,196.177 55.458,154.425 55.458,102.917 L55.458,0.851 L318.772,0.851 L318.772,102.917 L318.772,102.917 Z" id="Shape" fill="#141414"></path>
                            <g transform="translate(0.000000, 41.000000)" id="Shape">
                                <g fill="#141414">
                                    <path d="M295.472,56.292 L196.022,63.254 L100.521,56.235 L136.883,191.907 L260.668,191.646 L295.472,56.292 Z"></path>
                                    <path d="M100.52,55.968 L143.5,191.909 L0.35,191.647 L13.549,102.968 C13.549,78.897 33.869,59.382 58.946,59.382 L100.52,55.968 L100.52,55.968 Z"></path>
                                    <path d="M141.617,191.909 L252.687,191.909 L252.652,192 L141.651,192 L141.617,191.909 Z"></path>
                                    <path d="M395.649,191.909 L252.687,191.909 L295.468,56.289 L337.053,59.643 C362.13,59.643 382.45,79.158 382.45,103.228 L395.649,191.909 L395.649,191.909 Z"></path>
                                    <g transform="translate(115.000000, 0.000000)">
                                        <path d="M165.814,55.745 C164.77,98.847 83.019,184.953 83.019,184.953 C83.019,184.953 1.156,98.624 0.211,55.7 L16.344,54.764 C22.341,54.422 27.973,51.774 31.886,47.425 C38.167,40.532 37.974,36.093 36.074,15.606 C35.914,13.894 35.744,12.08 35.562,10.128 C35.3,7.297 35.028,4.203 34.731,0.826 L128.189,0.826 C127.87,4.58 127.54,7.971 127.245,11.062 C126.277,20.661 125.515,27.326 125.595,32.462 C125.63,35.486 125.948,37.974 126.687,40.223 C126.722,40.303 126.744,40.372 126.767,40.451 C127.621,42.906 128.985,45.074 131.034,47.344 C134.982,51.693 140.58,54.33 146.633,54.672 L165.814,55.745 L165.814,55.745 Z"></path>
                                        <path d="M165.814,55.745 C171.295,85.364 83.019,184.953 83.019,184.953 C83.019,184.953 81.456,92.862 75.202,51.113 L36.074,15.606 L35.436,10.128 L35.436,3.806 L127.244,3.806 L127.346,11.062 C126.482,21.38 125.639,27.738 125.594,32.462 C125.56,35.532 125.855,37.906 126.686,40.223 C126.721,40.303 126.743,40.372 126.766,40.451 C127.244,41.695 127.87,42.916 128.677,44.229 C129.348,45.29 130.145,46.363 131.032,47.344 C134.98,51.693 140.578,54.33 146.631,54.672 L165.814,55.745 L165.814,55.745 Z"></path>
                                    </g>
                                    <path d="M69.136,113.233 C84.872,101.166 176.295,173.372 198.019,184.952 C182.227,171.441 112.261,68.366 116.064,55.022 C86.842,54.001 67.383,72.16 69.135,97.612 C69.136,102.821 69.136,108.027 69.136,113.233 L69.136,113.233 Z"></path>
                                    <path d="M69.136,113.233 C84.872,101.166 176.295,173.372 198.019,184.952 C182.227,171.441 67.383,72.16 69.136,97.612 L69.136,113.233 L69.136,113.233 Z"></path>
                                    <path d="M327.354,113.233 C311.607,101.166 219.744,173.372 198.019,184.952 C213.809,171.441 284.219,68.366 280.428,55.022 C309.638,54.001 329.099,72.16 327.355,97.612 C327.354,102.821 327.354,108.027 327.354,113.233 L327.354,113.233 Z"></path>
                                    <path d="M327.354,113.233 C311.607,101.166 219.744,173.372 198.019,184.952 C213.809,171.441 329.099,72.16 327.354,97.612 C327.354,102.821 327.354,108.027 327.354,113.233 L327.354,113.233 Z"></path>
                                </g>
                                <g>
                                    <path d="M295.472,56.292 L196.022,63.254 L100.521,56.235 L136.883,191.907 L260.668,191.646 L295.472,56.292 Z" fill="#29ABE2"></path>
                                    <path d="M100.52,55.968 L143.5,191.909 L0.35,191.647 L13.549,102.968 C13.549,78.897 33.869,59.382 58.946,59.382 L100.52,55.968 L100.52,55.968 Z" fill="#FFFFFF"></path>
                                    <path fill="#FFFFFF" d="M141.617,191.909 L252.687,191.909 L252.652,192 L141.651,192 L141.617,191.909 Z"></path>
                                    <path d="M395.649,191.909 L252.687,191.909 L295.468,56.289 L337.053,59.643 C362.13,59.643 382.45,79.158 382.45,103.228 L395.649,191.909 L395.649,191.909 Z" fill="#FFFFFF"></path>
                                    <g transform="translate(115.000000, 0.000000)">
                                        <path d="M165.814,55.745 C164.77,98.847 83.019,184.953 83.019,184.953 C83.019,184.953 1.156,98.624 0.211,55.7 L16.344,54.764 C22.341,54.422 27.973,51.774 31.886,47.425 C38.167,40.532 37.974,36.093 36.074,15.606 C35.914,13.894 35.744,12.08 35.562,10.128 C35.3,7.297 35.028,4.203 34.731,0.826 L128.189,0.826 C127.87,4.58 127.54,7.971 127.245,11.062 C126.277,20.661 125.515,27.326 125.595,32.462 C125.63,35.486 125.948,37.974 126.687,40.223 C126.722,40.303 126.744,40.372 126.767,40.451 C127.621,42.906 128.985,45.074 131.034,47.344 C134.982,51.693 140.58,54.33 146.633,54.672 L165.814,55.745 L165.814,55.745 Z" fill="#FFB485"></path>
                                        <path d="M165.814,55.745 C171.295,85.364 83.019,184.953 83.019,184.953 C83.019,184.953 81.456,92.862 75.202,51.113 L36.074,15.606 L35.436,10.128 L35.436,3.806 L127.244,3.806 L127.346,11.062 C126.482,21.38 125.639,27.738 125.594,32.462 C125.56,35.532 125.855,37.906 126.686,40.223 C126.721,40.303 126.743,40.372 126.766,40.451 C127.244,41.695 127.87,42.916 128.677,44.229 C129.348,45.29 130.145,46.363 131.032,47.344 C134.98,51.693 140.578,54.33 146.631,54.672 L165.814,55.745 L165.814,55.745 Z" opacity="0.2" fill="#943B20"></path>
                                    </g>
                                    <path d="M69.136,113.233 C84.872,101.166 176.295,173.372 198.019,184.952 C182.227,171.441 112.261,68.366 116.064,55.022 C86.842,54.001 67.383,72.16 69.135,97.612 C69.136,102.821 69.136,108.027 69.136,113.233 L69.136,113.233 Z" fill="#29ABE2"></path>
                                    <path d="M69.136,113.233 C84.872,101.166 176.295,173.372 198.019,184.952 C182.227,171.441 67.383,72.16 69.136,97.612 L69.136,113.233 L69.136,113.233 Z" fill="#1D789E"></path>
                                    <path d="M327.354,113.233 C311.607,101.166 219.744,173.372 198.019,184.952 C213.809,171.441 284.219,68.366 280.428,55.022 C309.638,54.001 329.099,72.16 327.355,97.612 C327.354,102.821 327.354,108.027 327.354,113.233 L327.354,113.233 Z" fill="#29ABE2"></path>
                                    <path d="M327.354,113.233 C311.607,101.166 219.744,173.372 198.019,184.952 C213.809,171.441 329.099,72.16 327.354,97.612 C327.354,102.821 327.354,108.027 327.354,113.233 L327.354,113.233 Z" fill="#1D789E"></path>
                                </g>
                            </g>
                            <g transform="translate(279.000000, 204.000000)">
                                <path d="M58.971,27.044 L1.867,27.044 L1.867,10.65 C1.867,8.044 3.974,5.93 6.573,5.93 L54.265,5.93 C56.864,5.93 58.971,8.043 58.971,10.65 L58.971,27.044 L58.971,27.044 Z" id="Shape" fill="#22B573"></path>
                                <path d="M60.11,27.044 L57.835,27.044 L57.835,10.651 C57.835,8.676 56.235,7.071 54.267,7.071 L6.575,7.071 C4.607,7.071 3.007,8.676 3.007,10.651 L3.007,27.044 L0.731,27.044 L0.731,10.651 C0.731,7.419 3.352,4.789 6.575,4.789 L54.267,4.789 C57.489,4.789 60.11,7.419 60.11,10.651 L60.11,27.044 L60.11,27.044 Z" id="Shape" fill="#000000"></path>
                                <path d="M34.817,10.199 L26.024,10.199 L26.024,2.214 C26.024,1.062 27.096,0.13 28.419,0.13 L32.423,0.13 C33.745,0.13 34.818,1.062 34.818,2.214 L34.818,10.199 L34.817,10.199 Z" id="Shape" fill="#333333"></path>
                                <rect id="Rectangle-path" fill="#006837" x="24.625" y="9.592" width="11.591" height="1.213"></rect>
                                <rect id="Rectangle-path" fill="#C05432" x="7.15" y="16.487" width="18.874" height="10.558"></rect>
                                <rect id="Rectangle-path" fill="#333333" x="31.422" y="23.334" width="18.873" height="1.998"></rect>
                            </g>
                        </g>
                        <g transform="translate(65.000000, 40.000000)">
                            <g>
                                <path d="M265.141,137.388 C264.245,142.987 263.114,157.201 262.757,160.791 C261.564,167.25 259.87,171.854 257.944,175.117 C256.928,176.638 255.942,177.916 255.004,178.986 C254.964,179.03 254.926,179.072 254.884,179.111 C246.226,188.789 240.753,180.881 240.753,180.881 C240.184,210.534 223.491,232.659 207.546,253.047 C194.359,269.886 167.004,284.946 149.133,293.576 C138.431,298.727 125.926,298.51 115.408,292.979 C98.866,284.239 74.221,269.438 61.335,252.925 C45.441,232.551 28.317,206.145 27.735,176.558 L26.395,176.558 C24.933,176.558 23.451,176.789 22.057,177.237 C15.81,179.222 7.586,175.306 6.991,169.492 C6.166,161.335 1.666,145.475 0.38,137.389 C-0.798,129.916 2.371,117.913 7.493,112.352 C12.613,106.795 19.822,108.101 27.382,108.101 L27.666,108.139 L27.666,103.819 C27.666,-34.335 241.319,-34.335 241.319,103.819 L241.319,108.139 L241.606,108.101 C249.153,108.101 256.359,106.795 261.495,112.352 C266.617,117.912 266.33,129.915 265.141,137.388 L265.141,137.388 Z" id="Shape" fill="#F6BD91"></path>
                                <g transform="translate(50.000000, 127.000000)" fill="#000000">
                                    <g>
                                        <ellipse id="Oval" cx="33.597" cy="14.904" rx="11.443" ry="11.479"></ellipse>
                                        <path d="M58.961,18.102 C32.364,-12.84 27.36,5.688 0.301,10.996 L14.252,19.1 C14.275,4.108 37.551,-0.638 58.961,18.102 L58.961,18.102 Z" id="Shape"></path>
                                    </g>
                                    <g transform="translate(107.000000, 0.000000)">
                                        <ellipse id="Oval" cx="23.826" cy="12.121" rx="11.443" ry="11.48"></ellipse>
                                        <path d="M0.237,18.38 C2.357,16.368 4.483,14.751 6.607,13.239 C12.702,8.926 18.797,6.517 24.292,5.618 C35.88,3.773 44.747,8.878 45.031,17.998 L58.698,9.44 C37.433,5.904 29.38,-6.07 14.59,4.108 C12.486,5.57 10.194,7.524 7.731,9.931 L7.731,9.979 C5.415,12.28 2.952,15.085 0.237,18.38 L0.237,18.38 Z" id="Shape"></path>
                                    </g>
                                </g>
                                <g transform="translate(50.000000, 107.000000)" id="Shape" fill="#141414">
                                    <path d="M164.133,7.404 C154.213,5.365 144.294,3.325 134.374,1.289 C131.866,0.773 129.385,0.2 126.811,0.168 C123.414,0.126 120.108,0.945 117.049,2.404 C113.097,4.287 109.757,7.57 106.377,10.279 C104.995,11.387 103.585,12.387 103.217,14.267 C102.62,17.313 105.127,20.193 108.218,20.006 C110.242,19.881 111.458,18.464 112.785,17.141 C114.681,15.251 116.575,13.358 118.473,11.47 C118.454,11.484 118.462,11.479 118.494,11.451 C118.431,11.503 118.368,11.555 118.306,11.609 C121.482,8.765 124.991,7.144 129.331,7.225 C131.887,7.273 134.47,7.654 137.016,7.884 C140.21,8.172 143.404,8.46 146.599,8.746 C151.221,9.163 155.843,9.579 160.467,9.994 C161.476,10.084 162.484,10.175 163.492,10.267 C165.312,10.43 166.071,7.802 164.133,7.404 L164.133,7.404 Z"></path>
                                    <path d="M1.864,7.404 C11.784,5.365 21.703,3.325 31.623,1.289 C34.131,0.773 36.612,0.2 39.185,0.168 C42.583,0.126 45.888,0.945 48.947,2.404 C52.899,4.287 56.239,7.57 59.619,10.279 C61.001,11.387 62.411,12.387 62.779,14.267 C63.376,17.313 60.869,20.193 57.778,20.006 C55.754,19.881 54.538,18.464 53.212,17.141 C51.315,15.251 49.422,13.358 47.524,11.47 C47.543,11.484 47.535,11.479 47.503,11.451 C47.566,11.503 47.628,11.555 47.691,11.609 C44.516,8.765 41.007,7.144 36.666,7.225 C34.11,7.273 31.527,7.654 28.981,7.884 C25.787,8.172 22.593,8.46 19.399,8.746 C14.777,9.163 10.154,9.579 5.531,9.994 C4.522,10.084 3.514,10.175 2.505,10.267 C0.686,10.43 -0.073,7.802 1.864,7.404 L1.864,7.404 Z"></path>
                                </g>
                            </g>
                            <path d="M133,213.4 C128.608,213.4 126.001,209.855 124.098,207.268 C123.161,205.995 122.275,204.788 121.553,204.553 C120.875,204.332 120.462,203.421 120.629,202.52 C120.796,201.619 121.489,201.064 122.152,201.286 C123.574,201.744 124.706,203.284 125.904,204.914 C127.667,207.316 129.672,210.036 133.001,210.036 C136.595,210.036 138.749,207.131 140.652,204.568 C141.704,203.148 142.618,201.922 143.681,201.356 C144.321,201.006 145.06,201.429 145.32,202.296 C145.576,203.158 145.267,204.139 144.615,204.479 C144.043,204.789 143.265,205.832 142.448,206.937 C140.418,209.663 137.65,213.4 133,213.4 L133,213.4 Z" id="Shape" opacity="0.5" fill="#943B20"></path>
                            <g transform="translate(100.000000, 240.000000)" id="Shape">
                                <path d="M62.076,5.668 L62.013,5.668 C54.867,6.356 48.916,1.997 42.176,0.343 C41.102,0.08 39.953,0.441 39.338,1.234 C38.087,2.855 35.713,3.952 32.973,3.952 C30.229,3.952 27.852,2.851 26.602,1.226 C25.997,0.44 24.869,0.075 23.803,0.321 C16.876,1.916 10.064,6.056 3.868,5.668 C4.595,6.866 6.095,7.975 8.165,8.959 C10.508,14.767 20.709,21.426 32.973,21.426 C45.237,21.426 55.44,14.766 57.783,8.957 C59.851,7.973 61.349,6.864 62.076,5.668 L62.076,5.668 Z" fill="#FF6666"></path>
                                <path d="M65.358,3.984 C56.759,11.264 44.993,12.529 34.192,13.001 C30.689,13.153 27.06,12.899 23.584,12.451 C21.594,12.179 19.588,11.991 17.633,11.522 C14.516,10.773 11.533,9.907 8.513,8.829 C5.76,7.846 3.191,6.084 0.924,4.257 C0.387,3.824 0.683,3.653 1.209,3.912 C2.407,4.504 3.618,5.058 4.846,5.583 C7.549,6.742 10.426,7.404 13.3,7.982 C19.484,9.224 25.809,9.466 32.093,9.616 C38.464,9.768 44.791,9.129 51.089,8.252 C54.089,7.832 57.176,7.083 60.011,6.022 C61.274,5.549 62.513,4.985 63.729,4.402 C64.078,4.234 65.213,3.334 65.358,3.984 L65.358,3.984 Z" fill="#C1272D"></path>
                            </g>
                        </g>
                        <g transform="translate(23.000000, 0.000000)" id="Shape">
                            <path d="M186.058,1.009 C182.409,0.65 178.716,0.516 175.027,0.516 C170.479,0.516 165.987,0.739 161.539,1.187 C71.186,10.074 0.01,107.67 0.01,226.742 C0.01,307.686 32.906,378.634 82.314,418.593 C96.331,429.926 111.153,431.807 111.153,431.807 C107.825,429.047 100.407,415.371 103.155,404.953 C104.466,399.952 103.165,394.62 99.704,390.787 C43.704,328.85 102.823,306.567 91.275,271.207 C67.237,197.6 81.038,155.643 105.935,129.456 C105.935,129.456 118.548,131.103 117.141,137.539 C122.772,136.108 152.23,118.509 150.635,98.868 C150.635,64.476 209.133,77.555 201.374,60.431 C223.695,73.223 246.774,92.622 260.832,116.498 C263.317,120.717 263.631,125.874 261.674,130.37 C246.74,164.773 296.438,199.176 261.223,233.582 C295.013,206.723 277.044,179.871 278.483,153.012 C281.818,148.598 311.359,150.236 302.492,176.987 C297.46,192.163 302.805,194.899 300.895,201.913 C297.953,212.493 295.849,221.846 284.124,222.833 C282.778,222.944 280.486,221.846 279.146,220.977 C274.92,280.051 211.836,303.709 215.304,368.85 C223.443,411.266 254.609,407.658 254.564,428.233 C311.173,390.776 349.987,314.652 349.987,226.742 C349.988,106.594 277.522,8.329 186.058,1.009 L186.058,1.009 Z" fill="#292929"></path>
                            <path d="M134.355,40.298 C38.525,85.237 -8.296,154.669 31.908,291.159 C24.53,155.533 46.745,83.27 134.355,40.298 L134.355,40.298 Z" fill="#666666"></path>
                            <path d="M251.487,387.706 C211.41,326.575 280.344,270.84 279.139,220.976 C279.139,220.976 286.674,225.58 293.271,219.205 C293.312,219.167 293.354,219.126 293.394,219.08 C294.411,218.078 295.399,216.8 296.334,215.212 C297.134,214.015 298.295,210.798 298.798,209.146 C299.7,206.196 300.059,204.933 300.896,201.503 C314.391,267.966 221.178,317.768 251.487,387.706 L251.487,387.706 Z" fill="#666666"></path>
                            <path d="M209.388,53.412 C271.655,68.604 293.778,109.639 295.369,153.468 C290.136,151.289 284.309,149.897 278.484,153.013 C275.502,107.179 262.613,74.341 209.388,53.412 L209.388,53.412 Z" fill="#666666"></path>
                            <path d="M201.374,60.432 C204.382,41.692 172.691,4.576 161.54,1.186 C165.988,0.738 170.48,0.515 175.028,0.515 C178.716,0.515 182.41,0.649 186.059,1.008 C187.13,8.286 207.342,45.247 201.374,60.432 L201.374,60.432 Z" fill="#666666"></path>
                        </g>
                    </g>
                    <g transform="translate(92.000000, 138.000000)" id="Shape">
                        <path d="M4.209,4.051 L4.209,37.574 C4.209,59.233 20.869,76.792 41.418,76.792 L41.476,76.792 C60.086,76.792 77.269,66.26 86.508,49.23 C91.76,39.545 98.925,33.582 106.834,33.582 C114.745,33.582 121.912,39.549 127.166,49.231 C136.387,66.239 153.612,76.792 172.198,76.792 L172.256,76.792 C192.807,76.792 209.463,59.233 209.463,37.574 L209.463,4.051 L4.209,4.051 L4.209,4.051 Z" opacity="0.2" fill="#A6E2F1"></path>
                        <path d="M172.255,80.522 L172.2,80.522 C152.376,80.522 133.938,69.241 124.093,51.081 C119.273,42.205 113.142,37.317 106.833,37.317 C100.527,37.317 94.398,42.205 89.58,51.081 C79.733,69.241 61.299,80.522 41.476,80.522 C18.948,80.522 0.675,61.255 0.675,37.574 L0.675,0.322 L213.002,0.322 L213.002,37.574 C213.001,61.255 194.725,80.522 172.255,80.522 L172.255,80.522 Z M106.833,29.854 C115.794,29.854 124.104,36.078 130.236,47.38 C138.826,63.221 154.907,73.062 172.199,73.062 L172.254,73.062 C190.818,73.062 205.923,57.14 205.923,37.574 L205.923,7.783 L7.748,7.783 L7.748,37.574 C7.748,57.14 22.852,73.062 41.418,73.062 C58.765,73.062 74.842,63.221 83.437,47.379 C89.565,36.078 97.878,29.854 106.833,29.854 L106.833,29.854 Z" fill="#FFFFFF"></path>
                    </g>
                </g>
            </g>
        </g>
    </g>
</svg>